<svg xmlns="http://www.w3.org/2000/svg" viewBox="0 0 1024 1024"><path d="M516 254.6c-198.4 0-359.2 160.8-359.2 359.2C156.8 812.2 317.6 973 516 973c198.4 0 359.2-160.8 359.2-359.2 0-198.4-160.8-359.2-359.2-359.2zm-4.1 640.8c-152.2 0-275.5-123.4-275.5-275.5 0-152.2 123.4-275.5 275.5-275.5 152.2 0 275.5 123.4 275.5 275.5 0 152.2-123.4 275.5-275.5 275.5z" fill="#231f20"/><path d="M516 254.6c-198.4 0-359.2 160.8-359.2 359.2C156.8 812.2 317.6 973 516 973c198.4 0 359.2-160.8 359.2-359.2 0-198.4-160.8-359.2-359.2-359.2zm-4.1 640.8c-152.2 0-275.5-123.4-275.5-275.5 0-152.2 123.4-275.5 275.5-275.5 152.2 0 275.5 123.4 275.5 275.5 0 152.2-123.4 275.5-275.5 275.5z" fill="none" stroke="#231f20" stroke-miterlimit="10"/><path d="M397.7 619.9c0-63.1 51.1-114.2 114.2-114.2S626 556.9 626 619.9s-51.1 114.2-114.2 114.2S397.7 683 397.7 619.9zm39.7-211.6c0-23.5 19-42.5 42.5-42.5s42.5 19 42.5 42.5-19 42.5-42.5 42.5-42.5-19.1-42.5-42.5zm98.8 7c0-23.5 19-42.5 42.5-42.5s42.5 19 42.5 42.5-19 42.5-42.5 42.5-42.5-19.1-42.5-42.5zm-190.6 31.9c0-23.5 19-42.5 42.5-42.5s42.5 19 42.5 42.5-19 42.5-42.5 42.5-42.5-19-42.5-42.5zm-65.5 78c0-23.4 19-42.5 42.5-42.5s42.5 19 42.5 42.5-19 42.5-42.5 42.5-42.5-19-42.5-42.5zm-20.9 97.5c0-23.4 19-42.5 42.5-42.5s42.5 19 42.5 42.5-19 42.5-42.5 42.5-42.5-19-42.5-42.5zm25 96.1c0-23.5 19-42.5 42.5-42.5s42.5 19 42.5 42.5-19 42.5-42.5 42.5-42.5-19.1-42.5-42.5zm66.9 76.5c0-23.5 19-42.5 42.5-42.5s42.5 19 42.5 42.5c0 23.4-19 42.5-42.5 42.5s-42.5-19.1-42.5-42.5zm91.9 34.9c0-23.5 19-42.5 42.5-42.5s42.5 19 42.5 42.5c0 23.4-19 42.5-42.5 42.5S443 853.6 443 830.2zm98.8-9.8c0-23.5 19-42.5 42.5-42.5s42.5 19 42.5 42.5c0 23.4-19 42.5-42.5 42.5s-42.5-19-42.5-42.5zm86.3-54.3c0-23.5 19-42.5 42.5-42.5s42.5 19 42.5 42.5c0 23.4-19 42.5-42.5 42.5s-42.5-19-42.5-42.5zm130.5-20.9l-102-62.7 14.6-26.3s21.9 14.6 46.7 16c24.8 1.5 27.7-11.7 45.2-11.7 17.5 0 21.9 5.8 21.9 5.8s4.4 16.1-7.3 39.4c-11.7 23.5-19.1 39.5-19.1 39.5z" fill="#231f20" stroke="#231f20" stroke-miterlimit="10"/><path d="M350.4 327.9s0-160.7 6.8-168.1c6.8-7.4 9.5-34.2 41.9-53.6 32.3-19.3 54-31.2 105.3-31.2s98.6 5.9 128.4 35.7c29.7 29.8 29.7 41.7 31.1 67 1.3 25.3 6.7 157.7 6.7 157.7" fill="none" stroke="#231f20" stroke-width="65"/></svg>