<?xml version="1.0" encoding="utf-8"?>
<!-- Generator: Adobe Illustrator 22.0.1, SVG Export Plug-In . SVG Version: 6.00 Build 0)  -->
<svg version="1.1" id="Ebene_1" xmlns="http://www.w3.org/2000/svg" xmlns:xlink="http://www.w3.org/1999/xlink" x="0px" y="0px"
	 viewBox="0 0 1024 1024" style="enable-background:new 0 0 1024 1024;" xml:space="preserve">
<style type="text/css">
	.st0{fill:#231F20;}
	.st1{fill:none;stroke:#231F20;stroke-miterlimit:10;}
	.st2{fill:#231F20;stroke:#231F20;stroke-miterlimit:10;}
	.st3{fill:none;stroke:#231F20;stroke-width:65;}
</style>
<g>
	<g>
		<g>
			<path class="st0" d="M516,254.6c-198.4,0-359.2,160.8-359.2,359.2C156.8,812.2,317.6,973,516,973
				c198.4,0,359.2-160.8,359.2-359.2C875.2,415.4,714.4,254.6,516,254.6z M511.9,895.4c-152.2,0-275.5-123.4-275.5-275.5
				c0-152.2,123.4-275.5,275.5-275.5c152.2,0,275.5,123.4,275.5,275.5C787.4,772.1,664,895.4,511.9,895.4z"/>
		</g>
		<g>
			<path class="st1" d="M516,254.6c-198.4,0-359.2,160.8-359.2,359.2C156.8,812.2,317.6,973,516,973
				c198.4,0,359.2-160.8,359.2-359.2C875.2,415.4,714.4,254.6,516,254.6z M511.9,895.4c-152.2,0-275.5-123.4-275.5-275.5
				c0-152.2,123.4-275.5,275.5-275.5c152.2,0,275.5,123.4,275.5,275.5C787.4,772.1,664,895.4,511.9,895.4z"/>
		</g>
	</g>
	<path class="st2" d="M397.7,619.9c0-63.1,51.1-114.2,114.2-114.2S626,556.9,626,619.9c0,63-51.1,114.2-114.2,114.2
		S397.7,683,397.7,619.9z"/>
	<path class="st2" d="M437.4,408.3c0-23.5,19-42.5,42.5-42.5c23.5,0,42.5,19,42.5,42.5c0,23.5-19,42.5-42.5,42.5
		C456.4,450.8,437.4,431.7,437.4,408.3z"/>
	<path class="st2" d="M536.2,415.3c0-23.5,19-42.5,42.5-42.5s42.5,19,42.5,42.5s-19,42.5-42.5,42.5S536.2,438.7,536.2,415.3z"/>
	<path class="st2" d="M345.6,447.2c0-23.5,19-42.5,42.5-42.5s42.5,19,42.5,42.5c0,23.5-19,42.5-42.5,42.5S345.6,470.7,345.6,447.2z"
		/>
	<path class="st2" d="M280.1,525.2c0-23.4,19-42.5,42.5-42.5s42.5,19,42.5,42.5c0,23.5-19,42.5-42.5,42.5S280.1,548.7,280.1,525.2z"
		/>
	<path class="st2" d="M259.2,622.7c0-23.4,19-42.5,42.5-42.5s42.5,19,42.5,42.5c0,23.5-19,42.5-42.5,42.5S259.2,646.2,259.2,622.7z"
		/>
	<path class="st2" d="M284.2,718.8c0-23.5,19-42.5,42.5-42.5c23.5,0,42.5,19,42.5,42.5s-19,42.5-42.5,42.5
		C303.2,761.3,284.2,742.2,284.2,718.8z"/>
	<path class="st2" d="M351.1,795.3c0-23.5,19-42.5,42.5-42.5c23.5,0,42.5,19,42.5,42.5c0,23.4-19,42.5-42.5,42.5
		C370.1,837.8,351.1,818.7,351.1,795.3z"/>
	<path class="st2" d="M443,830.2c0-23.5,19-42.5,42.5-42.5s42.5,19,42.5,42.5c0,23.4-19,42.5-42.5,42.5S443,853.6,443,830.2z"/>
	<path class="st2" d="M541.8,820.4c0-23.5,19-42.5,42.5-42.5c23.5,0,42.5,19,42.5,42.5c0,23.4-19,42.5-42.5,42.5
		C560.8,862.9,541.8,843.9,541.8,820.4z"/>
	<path class="st2" d="M628.1,766.1c0-23.5,19-42.5,42.5-42.5c23.5,0,42.5,19,42.5,42.5c0,23.4-19,42.5-42.5,42.5
		C647.1,808.6,628.1,789.6,628.1,766.1z"/>
	<path class="st2" d="M758.6,745.2l-102-62.7l14.6-26.3c0,0,21.9,14.6,46.7,16c24.8,1.5,27.7-11.7,45.2-11.7
		c17.5,0,21.9,5.8,21.9,5.8s4.4,16.1-7.3,39.4C766,729.2,758.6,745.2,758.6,745.2z"/>
</g>
<path class="st3" d="M350.4,327.9c0,0,0-160.7,6.8-168.1c6.8-7.4,9.5-34.2,41.9-53.6C431.4,86.9,453.1,75,504.4,75
	c51.3,0,98.6,5.9,128.4,35.7c29.7,29.8,29.7,41.7,31.1,67c1.3,25.3,6.7,157.7,6.7,157.7"/>
</svg>
