<?xml version="1.0" encoding="utf-8"?>
<!-- Generator: Adobe Illustrator 22.0.1, SVG Export Plug-In . SVG Version: 6.00 Build 0)  -->
<svg version="1.1" id="Layer_1" xmlns="http://www.w3.org/2000/svg" xmlns:xlink="http://www.w3.org/1999/xlink" x="0px" y="0px"
	 viewBox="0 0 141.7 198.4" style="enable-background:new 0 0 141.7 198.4;" xml:space="preserve">
<style type="text/css">
	.st0{fill:none;stroke:#000000;stroke-width:10;}
</style>
<g>
	<g>
		<g>
			<path d="M71.2,43.6c-29.6,0-53.6,24-53.6,53.6c0,29.6,24,53.6,53.6,53.6c29.6,0,53.6-24,53.6-53.6
				C124.8,67.6,100.8,43.6,71.2,43.6z M70.6,139.2c-22.7,0-41.1-18.4-41.1-41.1C29.4,75.4,47.9,57,70.6,57
				c22.7,0,41.1,18.4,41.1,41.1C111.7,120.8,93.3,139.2,70.6,139.2z"/>
		</g>
	</g>
	<path d="M53.5,98.1c0-9.4,7.6-17,17-17s17,7.6,17,17c0,9.4-7.6,17-17,17S53.5,107.5,53.5,98.1z"/>
	<path d="M59.4,66.6c0-3.5,2.8-6.3,6.3-6.3c3.5,0,6.3,2.8,6.3,6.3c0,3.5-2.8,6.3-6.3,6.3C62.3,72.9,59.4,70.1,59.4,66.6z"/>
	<path d="M74.2,67.6c0-3.5,2.8-6.3,6.3-6.3s6.3,2.8,6.3,6.3s-2.8,6.3-6.3,6.3S74.2,71.1,74.2,67.6z"/>
	<path d="M45.7,72.4c0-3.5,2.8-6.3,6.3-6.3c3.5,0,6.3,2.8,6.3,6.3c0,3.5-2.8,6.3-6.3,6.3C48.6,78.7,45.7,75.9,45.7,72.4z"/>
	<path d="M36,84c0-3.5,2.8-6.3,6.3-6.3c3.5,0,6.3,2.8,6.3,6.3c0,3.5-2.8,6.3-6.3,6.3C38.8,90.3,36,87.5,36,84z"/>
	<path d="M32.9,98.5c0-3.5,2.8-6.3,6.3-6.3c3.5,0,6.3,2.8,6.3,6.3c0,3.5-2.8,6.3-6.3,6.3C35.7,104.9,32.9,102,32.9,98.5z"/>
	<path d="M36.6,112.9c0-3.5,2.8-6.3,6.3-6.3c3.5,0,6.3,2.8,6.3,6.3s-2.8,6.3-6.3,6.3C39.4,119.2,36.6,116.4,36.6,112.9z"/>
	<path d="M46.6,124.3c0-3.5,2.8-6.3,6.3-6.3c3.5,0,6.3,2.8,6.3,6.3c0,3.5-2.8,6.3-6.3,6.3C49.4,130.6,46.6,127.8,46.6,124.3z"/>
	<path d="M60.3,129.5c0-3.5,2.8-6.3,6.3-6.3c3.5,0,6.3,2.8,6.3,6.3c0,3.5-2.8,6.3-6.3,6.3C63.1,135.8,60.3,133,60.3,129.5z"/>
	<path d="M75,128c0-3.5,2.8-6.3,6.3-6.3c3.5,0,6.3,2.8,6.3,6.3c0,3.5-2.8,6.3-6.3,6.3C77.9,134.4,75,131.5,75,128z"/>
	<path d="M87.9,119.9c0-3.5,2.8-6.3,6.3-6.3c3.5,0,6.3,2.8,6.3,6.3c0,3.5-2.8,6.3-6.3,6.3C90.7,126.3,87.9,123.4,87.9,119.9z"/>
	<path d="M107.4,116.8l-15.2-9.4l2.2-3.9c0,0,3.3,2.2,7,2.4c3.7,0.2,4.1-1.7,6.8-1.7c2.6,0,3.3,0.9,3.3,0.9s0.7,2.4-1.1,5.9
		C108.5,114.4,107.4,116.8,107.4,116.8z"/>
</g>
<path class="st0" d="M46.5,54.6c0,0,0-24,1-25.1c1-1.1,1.4-5.1,6.2-8c4.8-2.9,8.1-4.7,15.7-4.7c7.7,0,14.7,0.9,19.2,5.3
	c4.4,4.4,4.4,6.2,4.6,10c0.2,3.8,1,23.5,1,23.5"/>
</svg>
