<?xml version="1.0" encoding="UTF-8" standalone="no"?>
<svg
   xmlns:dc="http://purl.org/dc/elements/1.1/"
   xmlns:cc="http://creativecommons.org/ns#"
   xmlns:rdf="http://www.w3.org/1999/02/22-rdf-syntax-ns#"
   xmlns:svg="http://www.w3.org/2000/svg"
   xmlns="http://www.w3.org/2000/svg"
   xmlns:sodipodi="http://sodipodi.sourceforge.net/DTD/sodipodi-0.dtd"
   xmlns:inkscape="http://www.inkscape.org/namespaces/inkscape"
   viewBox="0 0 107.2 139"
   version="1.1"
   id="svg8"
   sodipodi:docname="logo.svg"
   width="107.2"
   height="139"
   inkscape:version="0.92.4 (5da689c313, 2019-01-14)">
  <metadata
     id="metadata14">
    <rdf:RDF>
      <cc:Work
         rdf:about="">
        <dc:format>image/svg+xml</dc:format>
        <dc:type
           rdf:resource="http://purl.org/dc/dcmitype/StillImage" />
      </cc:Work>
    </rdf:RDF>
  </metadata>
  <defs
     id="defs12" />
  <sodipodi:namedview
     pagecolor="#ffffff"
     bordercolor="#666666"
     borderopacity="1"
     objecttolerance="10"
     gridtolerance="10"
     guidetolerance="10"
     inkscape:pageopacity="0"
     inkscape:pageshadow="2"
     inkscape:window-width="484"
     inkscape:window-height="443"
     id="namedview10"
     showgrid="false"
     inkscape:zoom="1.1895162"
     inkscape:cx="53.249998"
     inkscape:cy="51.600003"
     inkscape:window-x="0"
     inkscape:window-y="0"
     inkscape:window-maximized="0"
     inkscape:current-layer="svg8" />
  <path
     d="M 53.6,31.8 C 24,31.8 0,55.8 0,85.4 0,115 24,139 53.6,139 c 29.6,0 53.6,-24 53.6,-53.6 0,-29.6 -24,-53.6 -53.6,-53.6 z M 53,127.4 C 30.3,127.4 11.9,109 11.9,86.3 11.8,63.6 30.3,45.2 53,45.2 c 22.7,0 41.1,18.4 41.1,41.1 0,22.7 -18.4,41.1 -41.1,41.1 z"
     id="path2"
     inkscape:connector-curvature="0" />
  <path
     d="m 35.9,86.3 c 0,-9.4 7.6,-17 17,-17 9.4,0 17,7.6 17,17 0,9.4 -7.6,17 -17,17 -9.4,0 -17,-7.6 -17,-17 z m 5.9,-31.5 c 0,-3.5 2.8,-6.3 6.3,-6.3 3.5,0 6.3,2.8 6.3,6.3 0,3.5 -2.8,6.3 -6.3,6.3 -3.4,0 -6.3,-2.8 -6.3,-6.3 z m 14.8,1 c 0,-3.5 2.8,-6.3 6.3,-6.3 3.5,0 6.3,2.8 6.3,6.3 0,3.5 -2.8,6.3 -6.3,6.3 -3.5,0 -6.3,-2.8 -6.3,-6.3 z m -28.5,4.8 c 0,-3.5 2.8,-6.3 6.3,-6.3 3.5,0 6.3,2.8 6.3,6.3 0,3.5 -2.8,6.3 -6.3,6.3 -3.4,0 -6.3,-2.8 -6.3,-6.3 z m -9.7,11.6 c 0,-3.5 2.8,-6.3 6.3,-6.3 3.5,0 6.3,2.8 6.3,6.3 0,3.5 -2.8,6.3 -6.3,6.3 -3.5,0 -6.3,-2.8 -6.3,-6.3 z m -3.1,14.5 c 0,-3.5 2.8,-6.3 6.3,-6.3 3.5,0 6.3,2.8 6.3,6.3 0,3.5 -2.8,6.3 -6.3,6.3 -3.5,0.1 -6.3,-2.8 -6.3,-6.3 z m 3.7,14.4 c 0,-3.5 2.8,-6.3 6.3,-6.3 3.5,0 6.3,2.8 6.3,6.3 0,3.5 -2.8,6.3 -6.3,6.3 -3.5,0 -6.3,-2.8 -6.3,-6.3 z m 10,11.4 c 0,-3.5 2.8,-6.3 6.3,-6.3 3.5,0 6.3,2.8 6.3,6.3 0,3.5 -2.8,6.3 -6.3,6.3 -3.5,0 -6.3,-2.8 -6.3,-6.3 z m 13.7,5.2 c 0,-3.5 2.8,-6.3 6.3,-6.3 3.5,0 6.3,2.8 6.3,6.3 0,3.5 -2.8,6.3 -6.3,6.3 -3.5,0 -6.3,-2.8 -6.3,-6.3 z m 14.7,-1.5 c 0,-3.5 2.8,-6.3 6.3,-6.3 3.5,0 6.3,2.8 6.3,6.3 0,3.5 -2.8,6.3 -6.3,6.3 -3.4,0.1 -6.3,-2.8 -6.3,-6.3 z m 12.9,-8.1 c 0,-3.5 2.8,-6.3 6.3,-6.3 3.5,0 6.3,2.8 6.3,6.3 0,3.5 -2.8,6.3 -6.3,6.3 -3.5,0.1 -6.3,-2.8 -6.3,-6.3 z M 89.8,105 74.6,95.6 76.8,91.7 c 0,0 3.3,2.2 7,2.4 3.7,0.2 4.1,-1.7 6.8,-1.7 2.6,0 3.3,0.9 3.3,0.9 0,0 0.7,2.4 -1.1,5.9 -1.9,3.4 -3,5.8 -3,5.8 z"
     id="path4"
     inkscape:connector-curvature="0" />
  <path
     d="m 28.9,42.8 c 0,0 0,-24 1,-25.1 1,-1.1 1.4,-5.1 6.2,-8 C 40.9,6.8 44.2,5 51.8,5 c 7.7,0 14.7,0.9 19.2,5.3 4.4,4.4 4.4,6.2 4.6,10 0.2,3.8 1,23.5 1,23.5"
     id="path6"
     inkscape:connector-curvature="0"
     style="fill:none;stroke:#000000;stroke-width:10" />
</svg>
