<svg xmlns="http://www.w3.org/2000/svg" viewBox="0 0 141.7 198.4"><path d="M71.2 43.6c-29.6 0-53.6 24-53.6 53.6s24 53.6 53.6 53.6 53.6-24 53.6-53.6-24-53.6-53.6-53.6zm-.6 95.6c-22.7 0-41.1-18.4-41.1-41.1C29.4 75.4 47.9 57 70.6 57c22.7 0 41.1 18.4 41.1 41.1 0 22.7-18.4 41.1-41.1 41.1z"/><path d="M53.5 98.1c0-9.4 7.6-17 17-17s17 7.6 17 17-7.6 17-17 17-17-7.6-17-17zm5.9-31.5c0-3.5 2.8-6.3 6.3-6.3s6.3 2.8 6.3 6.3-2.8 6.3-6.3 6.3c-3.4 0-6.3-2.8-6.3-6.3zm14.8 1c0-3.5 2.8-6.3 6.3-6.3s6.3 2.8 6.3 6.3-2.8 6.3-6.3 6.3-6.3-2.8-6.3-6.3zm-28.5 4.8c0-3.5 2.8-6.3 6.3-6.3s6.3 2.8 6.3 6.3-2.8 6.3-6.3 6.3c-3.4 0-6.3-2.8-6.3-6.3zM36 84c0-3.5 2.8-6.3 6.3-6.3s6.3 2.8 6.3 6.3-2.8 6.3-6.3 6.3S36 87.5 36 84zm-3.1 14.5c0-3.5 2.8-6.3 6.3-6.3s6.3 2.8 6.3 6.3-2.8 6.3-6.3 6.3c-3.5.1-6.3-2.8-6.3-6.3zm3.7 14.4c0-3.5 2.8-6.3 6.3-6.3s6.3 2.8 6.3 6.3-2.8 6.3-6.3 6.3-6.3-2.8-6.3-6.3zm10 11.4c0-3.5 2.8-6.3 6.3-6.3s6.3 2.8 6.3 6.3-2.8 6.3-6.3 6.3-6.3-2.8-6.3-6.3zm13.7 5.2c0-3.5 2.8-6.3 6.3-6.3s6.3 2.8 6.3 6.3-2.8 6.3-6.3 6.3-6.3-2.8-6.3-6.3zM75 128c0-3.5 2.8-6.3 6.3-6.3s6.3 2.8 6.3 6.3-2.8 6.3-6.3 6.3c-3.4.1-6.3-2.8-6.3-6.3zm12.9-8.1c0-3.5 2.8-6.3 6.3-6.3s6.3 2.8 6.3 6.3-2.8 6.3-6.3 6.3c-3.5.1-6.3-2.8-6.3-6.3zm19.5-3.1l-15.2-9.4 2.2-3.9s3.3 2.2 7 2.4c3.7.2 4.1-1.7 6.8-1.7 2.6 0 3.3.9 3.3.9s.7 2.4-1.1 5.9c-1.9 3.4-3 5.8-3 5.8z"/><path d="M46.5 54.6s0-24 1-25.1c1-1.1 1.4-5.1 6.2-8 4.8-2.9 8.1-4.7 15.7-4.7 7.7 0 14.7.9 19.2 5.3 4.4 4.4 4.4 6.2 4.6 10 .2 3.8 1 23.5 1 23.5" fill="none" stroke="#000" stroke-width="10"/></svg>