<svg data-name="Ebene 1" xmlns="http://www.w3.org/2000/svg" viewBox="0 0 71.11 14.81"><path d="M7.2 5.46a1.4 1.4 0 0 1-.28.85h-2.3a.31.31 0 0 0 .12-.28.36.36 0 0 0-.23-.31 1.2 1.2 0 0 0-.57-.12c-.7 0-1 .21-1 .64 0 .17.13.29.39.37a7.72 7.72 0 0 0 .95.18 10.5 10.5 0 0 1 1.12.2 2 2 0 0 1 .95.53 1.42 1.42 0 0 1 .4 1.05 2 2 0 0 1-.94 1.76 5 5 0 0 1-2.7.6 4.12 4.12 0 0 1-2.5-.57 1.5 1.5 0 0 1-.56-1.23 3.57 3.57 0 0 1 0-.46h2.34c0 .13.06.24.23.34a1.59 1.59 0 0 0 .77.15 1.86 1.86 0 0 0 .73-.11.41.41 0 0 0 .22-.4q0-.2-.39-.27c-.26-.05-.58-.09-1-.13a9 9 0 0 1-1.14-.19 1.84 1.84 0 0 1-.95-.53 1.42 1.42 0 0 1-.4-1.06 2.24 2.24 0 0 1 1-2 5 5 0 0 1 2.85-.69c1.93.01 2.89.57 2.89 1.68zM10.84 8.98a1.17 1.17 0 0 0 .57-.14l-.07 1.58a2.28 2.28 0 0 1-1.44.56c-.85 0-1.4-.19-1.66-.58a1.61 1.61 0 0 1-.25-.84 4.38 4.38 0 0 1 .06-.77l.79-4.81h2.38l-.79 4.41a.92.92 0 0 0 0 .16c-.01.27.13.43.41.43zM9.12 1.72a1.82 1.82 0 0 1 .4-1.31 1.67 1.67 0 0 1 1.24-.43c.78 0 1.17.35 1.17 1a1.77 1.77 0 0 1-.4 1.29 1.68 1.68 0 0 1-1.25.41c-.78.05-1.16-.29-1.16-.96zM23.9 8.98a1.17 1.17 0 0 0 .57-.14l-.07 1.58a2.29 2.29 0 0 1-1.5.56c-1.26 0-1.9-.53-1.9-1.59a3.21 3.21 0 0 1 .06-.6l.25-1.81a2.74 2.74 0 0 0 0-.5c0-.45-.24-.67-.73-.67a1.37 1.37 0 0 0-1.16.57l-.75 4.33h-2.34l.66-3.73a4 4 0 0 0 0-.5c0-.45-.25-.67-.76-.67a1.35 1.35 0 0 0-1 .46l-.79 4.44h-2.37l1.19-6.73h2.21l-.15.84a2.62 2.62 0 0 1 2.13-1q1.82 0 2.07 1.2a2.62 2.62 0 0 1 2.25-1.2c.93 0 1.54.21 1.82.63a1.68 1.68 0 0 1 .28.95 5.37 5.37 0 0 1-.07.94l-.35 2.08a.92.92 0 0 0 0 .16c-.01.24.13.4.45.4zM27.9 8.58a.33.33 0 0 0 .37.37 1.33 1.33 0 0 0 .63-.14l-.07 1.58a2.37 2.37 0 0 1-1.51.54c-.85 0-1.41-.19-1.66-.58a1.54 1.54 0 0 1-.24-.83 4.42 4.42 0 0 1 .06-.78L27.01.11h2.38l-1.49 8.3a1.11 1.11 0 0 0 0 .17zM36.29 8.58a.33.33 0 0 0 .37.37 1.26 1.26 0 0 0 .62-.14l-.07 1.58a2.33 2.33 0 0 1-1.51.59c-1 0-1.59-.37-1.71-1.12a2.26 2.26 0 0 1-2.09 1.12c-1.53 0-2.3-.65-2.3-2a4.08 4.08 0 0 1 .07-.74l.29-1.64a3.53 3.53 0 0 1 1-2 3 3 0 0 1 2.1-.75 2.12 2.12 0 0 1 1.76.6l.07-.42h2.13l-.79 4.41a1 1 0 0 0 .06.14zm-4.14-.67a1.56 1.56 0 0 0 0 .35.63.63 0 0 0 .21.44.93.93 0 0 0 .71.22 1.15 1.15 0 0 0 .86-.39l.42-2.36a.72.72 0 0 0-.73-.35 1.14 1.14 0 0 0-1.26 1zM44.9 5.43a2.68 2.68 0 0 1-.16.93 3.06 3.06 0 0 1-.31.65l-.16.2H42.2a1.06 1.06 0 0 0 .35-.8.58.58 0 0 0-.16-.41.6.6 0 0 0-.44-.16 1 1 0 0 0-.83.47l-.78 4.43h-2.38l1.19-6.76h2.21l-.17.94a2.33 2.33 0 0 1 1.93-1.13 1.92 1.92 0 0 1 1.37.43 1.58 1.58 0 0 1 .41 1.21zM44.41 9.98a1.85 1.85 0 0 1 .39-1.31 1.64 1.64 0 0 1 1.25-.42c.78 0 1.17.35 1.17 1a1.81 1.81 0 0 1-.39 1.29 1.72 1.72 0 0 1-1.26.4c-.77.04-1.16-.34-1.16-.96zM52.81 3.81a3.41 3.41 0 0 1 2.28.66 1.79 1.79 0 0 1 .6 1.44 3.32 3.32 0 0 1-.07.67l-.29 1.64a3 3 0 0 1-1.24 2.1 4.81 4.81 0 0 1-2.6.61 3.77 3.77 0 0 1-2.38-.61 1.71 1.71 0 0 1-.56-1.34 4.85 4.85 0 0 1 .07-.71l.28-1.69c.35-1.85 1.64-2.77 3.91-2.77zm.38 3.05a1.73 1.73 0 0 0 0-.36.84.84 0 0 0-.19-.48.7.7 0 0 0-.63-.27 1.06 1.06 0 0 0-.77.3 1.51 1.51 0 0 0-.39.81l-.18 1a1.73 1.73 0 0 0 0 .36.84.84 0 0 0 .18.47.78.78 0 0 0 .69.29 1 1 0 0 0 .76-.32 1.44 1.44 0 0 0 .4-.76zM63.31 5.43a2.68 2.68 0 0 1-.16.93 2.6 2.6 0 0 1-.32.65l-.15.2h-2.11a1.06 1.06 0 0 0 .35-.8.58.58 0 0 0-.16-.41.61.61 0 0 0-.45-.16 1 1 0 0 0-.82.47l-.79 4.43h-2.38l1.19-6.76h2.22l-.17.94a2.32 2.32 0 0 1 1.93-1.13 1.88 1.88 0 0 1 1.36.43 1.55 1.55 0 0 1 .46 1.21zM68.47 13.78a3.55 3.55 0 0 1-2.51 1 3.14 3.14 0 0 1-2-.52 1.64 1.64 0 0 1-.66-1.28 2.57 2.57 0 0 1 1.6-2.19 1.68 1.68 0 0 1-1.23-1.81 5.5 5.5 0 0 1 .07-.77l.28-1.64a3.49 3.49 0 0 1 1-2 3 3 0 0 1 2.11-.75 2.11 2.11 0 0 1 1.77.63l.08-.45h2.09l-1.17 6.98a5 5 0 0 1-1.43 2.8zm-2.19-1c.6 0 1-.55 1.19-1.65l.14-.81q-2 .9-1.95 1.83a.65.65 0 0 0 .16.45.59.59 0 0 0 .46.21zm-.1-4.9a1.56 1.56 0 0 0 0 .35.63.63 0 0 0 .21.44.94.94 0 0 0 .71.22 1.14 1.14 0 0 0 .86-.39l.42-2.36a.78.78 0 0 0-.74-.35 1.27 1.27 0 0 0-.86.28 1.35 1.35 0 0 0-.39.76z"/></svg>